<svg width="26" height="30" viewBox="0 0 26 30" fill="none" xmlns="http://www.w3.org/2000/svg">
<path fill-rule="evenodd" clip-rule="evenodd" d="M10.6882 0.0873244C10.7835 0.564248 10.7866 1.89613 10.6941 2.58418C10.5436 3.70342 10.2512 4.7804 9.76081 6.02119C9.50474 6.66908 8.78205 8.1358 8.382 8.81946C7.56432 10.2169 6.54367 11.6878 5.39542 13.1233L4.98182 13.6404L4.96149 13.4275C4.95031 13.3104 4.92565 13.0093 4.90672 12.7583C4.79422 11.2688 4.53687 10.2691 3.97134 9.12456L3.76889 8.71489L3.70223 9.18871C3.57935 10.0622 3.33791 10.8883 2.91545 11.8809C2.78837 12.1795 2.33743 13.1287 1.91336 13.9902C1.48931 14.8517 1.06107 15.7482 0.961725 15.9824C0.590023 16.8587 0.348105 17.6139 0.196781 18.3701C0.0199381 19.2539 0.000585978 19.4635 8.75351e-06 20.4992C-0.000598851 21.5704 0.0299332 21.8344 0.245845 22.6233C0.818391 24.7155 2.38768 26.6017 5.08815 28.4434C5.72878 28.8803 7.2347 29.7967 7.26392 29.7674C7.27051 29.7608 7.21419 29.6231 7.13869 29.4614C6.73521 28.5969 6.4134 27.5653 6.28808 26.7345C6.2182 26.271 6.19688 25.5395 6.24068 25.1072C6.36066 23.9232 6.76617 22.8571 7.59601 21.5442C7.73721 21.3207 7.96731 20.9566 8.10737 20.7349C8.90069 19.4793 9.57656 17.936 9.92003 16.596L10.02 16.2058L10.1235 16.3679C10.4811 16.9283 10.7617 17.7236 10.8741 18.4956C10.934 18.9073 10.935 19.7719 10.8759 20.1798C10.8517 20.3471 10.8315 20.5019 10.831 20.5239C10.8298 20.5709 11.0028 20.3751 11.2526 20.0466C12.2536 18.7301 12.9955 16.7979 13.2454 14.857C13.3539 14.0149 13.3615 13.0096 13.2635 12.4846C13.2479 12.401 13.2389 12.3288 13.2435 12.3241C13.2481 12.3195 13.4043 12.4302 13.5906 12.5702C16.7031 14.9086 18.7456 18.7861 19.0651 22.9629C19.1106 23.5565 19.0846 24.9923 19.0189 25.5179C18.8364 26.9773 18.4798 28.2365 17.896 29.483C17.8125 29.6612 17.7727 29.7765 17.798 29.7668C17.8983 29.7282 18.9674 29.0701 19.4276 28.7637C23.0861 26.3275 25.2384 23.4195 25.837 20.1038C26.0549 18.8969 26.0543 17.4972 25.8352 16.1801C25.346 13.2389 23.7172 10.0036 21.3334 7.23783C20.8271 6.65046 19.7235 5.56279 19.6789 5.60735C19.6731 5.61325 19.7111 5.72588 19.7635 5.85764C19.8159 5.9894 19.9051 6.28082 19.9617 6.5052C20.2113 7.49539 20.2155 8.55262 19.9732 9.41713C19.8287 9.9325 19.5378 10.4616 19.2162 10.794L19.0568 10.9587L18.8949 10.3986C18.2168 8.0517 17.1819 5.9067 15.9099 4.21143C15.3363 3.44705 14.5175 2.55872 13.8398 1.96564C13.4384 1.6143 12.7209 1.076 12.3138 0.820715C11.9599 0.598709 11.0437 0.126591 10.8187 0.0502168L10.6708 0L10.6882 0.0873244Z" fill="#9146FF"/>
</svg>
