<svg width="22" height="20" viewBox="0 0 22 20" fill="none" xmlns="http://www.w3.org/2000/svg">
<path fill-rule="evenodd" clip-rule="evenodd" d="M1.48195 0.0310586C1.20108 0.097868 0.81815 0.323874 0.578902 0.563997C-0.0433567 1.18853 -0.17384 2.09164 0.239744 2.91134C0.369649 3.16881 0.744055 3.54314 1.01946 3.69092C1.49779 3.94757 -1.26654 3.93087 10.0003 3.93087C21.2672 3.93087 20.5029 3.94757 20.9812 3.69092C21.2572 3.54281 21.631 3.16869 21.7619 2.90959C21.9518 2.53344 22.0104 2.25213 21.9881 1.82382C21.9698 1.47334 21.9511 1.40121 21.7985 1.09208C21.5842 0.658004 21.2951 0.374074 20.8505 0.160982L20.5292 0.00701729L10.0831 0.000622887C4.11631 -0.0030726 1.57048 0.0100068 1.48195 0.0310586ZM1.51835 8.06591C0.632147 8.28121 0.00277175 9.07108 0.00277175 9.96801C0.00277175 10.7237 0.394223 11.3899 1.04192 11.7363C1.53494 12.0001 -1.13986 11.9847 10.0003 11.9847C19.1405 11.9847 20.4657 12.0001 20.9587 11.7363C22.1377 11.1056 22.3602 9.49237 21.396 8.56518C21.2913 8.46444 21.0982 8.32455 20.967 8.25434C20.4609 7.98361 19.225 8.00101 9.97964 8.00413C1.30139 8.00654 1.72446 8.01588 1.51835 8.06591ZM1.40938 16.1337C1.04519 16.2519 0.829444 16.3817 0.578323 16.6337C-0.192912 17.4078 -0.192747 18.6478 0.578654 19.422C0.830396 19.6747 1.08723 19.8257 1.44794 19.9331C1.65194 19.9939 0.623036 20 10.0003 20C19.3776 20 20.3487 19.9939 20.5527 19.9331C20.9134 19.8257 21.1702 19.6747 21.422 19.422C21.8048 19.0378 21.9969 18.572 21.9969 18.0277C21.9969 17.1283 21.4331 16.3844 20.5527 16.1223C20.3486 16.0615 19.3803 16.0556 9.98245 16.0576C0.183471 16.0597 1.62488 16.0637 1.40938 16.1337Z" fill="white"/>
</svg>
