<svg width="29" height="29" viewBox="0 0 29 29" fill="none" xmlns="http://www.w3.org/2000/svg">
<path fill-rule="evenodd" clip-rule="evenodd" d="M14.8413 3.72444L11.0761 7.50263L10.0071 7.61094C5.17956 8.10087 1.16187 11.5573 0.235155 16.0182C-0.424872 19.196 0.319593 22.4202 2.27857 24.8668C3.80971 26.7794 5.76272 28.0958 7.96357 28.6992C9.0453 28.9958 9.53484 29.0385 11.1058 28.974C13.0736 28.8931 13.7741 28.7152 15.6254 27.8261C16.3831 27.4622 17.0791 26.9195 18.1408 25.8644C19.3553 24.6576 19.7222 24.1693 20.2653 23.0369C20.9379 21.6346 21.4264 19.7192 21.4264 18.4854C21.4264 17.7949 21.4453 17.7724 25.2132 14.0004C27.9196 11.2911 29 10.1055 29 9.84493C29 9.37824 28.46 8.83472 27.9963 8.83472C27.7417 8.83472 26.4295 10.0446 23.4844 12.9948L19.3316 17.1551V18.4751C19.3316 24.0162 14.249 28.0585 8.80665 26.8456C6.08226 26.2384 4.10653 24.6871 2.92941 22.2307C1.64271 19.5457 1.63046 17.0591 2.89106 14.413C4.1929 11.6803 7.32578 9.64185 10.2234 9.64185C10.8402 9.64185 11.4743 9.54419 11.7259 9.41053C12.2668 9.1227 19.5476 1.79345 19.8144 1.26785C19.9784 0.944835 19.9596 0.817792 19.6947 0.460716C19.0297 -0.435685 18.9007 -0.348838 14.8413 3.72444ZM23.2795 0.414387C22.5804 0.841845 21.1042 2.51148 21.1042 2.87501C21.1042 3.29747 21.6682 3.8305 22.1153 3.8305C22.6012 3.8305 24.8104 1.62057 24.8104 1.13451C24.8104 0.832159 24.1426 0.116555 23.8621 0.118331C23.8076 0.118654 23.5454 0.251831 23.2795 0.414387ZM24.4505 5.08155C22.6916 6.83497 21.2094 8.44003 21.157 8.64827C21.0234 9.17791 21.7284 9.88415 22.2571 9.75033C22.828 9.60585 29 3.32927 29 2.89309C29 2.43771 28.4566 1.89338 28.0021 1.89338C27.7583 1.89338 26.6575 2.88147 24.4505 5.08155ZM17.212 6.37474C15.3226 8.25665 14.8197 8.84812 14.8197 9.18808C14.8197 9.69641 15.5088 10.3166 15.9177 10.1763C16.0671 10.125 17.2589 9.0223 18.5662 7.72556C20.4625 5.84478 20.943 5.27978 20.943 4.93126C20.943 4.45505 20.4364 3.99192 19.9154 3.99192C19.73 3.99192 18.6376 4.95467 17.212 6.37474ZM9.74383 10.8766C7.80339 11.2813 6.71248 11.8368 5.52843 13.0229C1.63062 16.9278 3.33338 23.4914 8.67306 25.1446C11.2705 25.9487 14.0463 25.1595 15.9743 23.0685C17.0544 21.8974 17.6597 20.6905 17.8822 19.2651C18.3601 16.2032 16.8593 13.2329 14.035 11.6515C12.8261 10.9744 10.9222 10.6308 9.74383 10.8766ZM18.8669 11.1883C18.4402 11.7317 18.4384 11.9756 18.858 12.3959C19.2988 12.8375 19.9366 12.7474 20.3542 12.1843L20.6838 11.7404L20.3542 11.2965C19.8982 10.6818 19.2989 10.6382 18.8669 11.1883ZM12.4026 13.0709C13.6697 13.4572 14.7272 14.3725 15.4351 15.6953C15.8209 16.4166 15.8668 16.6744 15.8668 18.1167C15.8668 19.5638 15.8212 19.8179 15.4263 20.5683C14.8471 21.6689 13.9778 22.5058 12.8861 23.0136C11.6279 23.5988 9.79894 23.5994 8.52788 23.0149C7.37041 22.4827 6.60564 21.799 6.08548 20.8318C4.28056 17.4746 6.16396 13.4483 9.80362 12.8838C10.6501 12.7525 11.5771 12.8192 12.4026 13.0709ZM7.97356 14.996C7.42649 15.4271 7.08745 16.2 7.1959 16.7685C7.29323 17.2789 8.1629 18.1569 8.61586 18.2023C9.38884 18.2798 9.72885 18.164 10.2434 17.6486C10.6925 17.1987 10.7912 16.9776 10.7912 16.4218C10.7912 14.9809 9.08703 14.1185 7.97356 14.996ZM12.5918 16.6339C12.1642 17.0901 12.1434 17.5742 12.5362 17.9303C13.1413 18.479 14.1752 18.0717 14.1752 17.2848C14.1752 16.913 13.5448 16.2603 13.1858 16.2603C13.0519 16.2603 12.7845 16.4285 12.5918 16.6339ZM9.73658 19.7237C8.87884 20.5829 9.50245 22.0717 10.7199 22.0717C11.1095 22.0717 11.3543 21.9429 11.6632 21.575C12.212 20.9215 12.2004 20.3102 11.6284 19.7612C11.0388 19.1952 10.279 19.1802 9.73658 19.7237Z" fill="#B3B0B8"/>
</svg>
